<svg width="15" height="18" viewBox="0 0 15 18" fill="none" xmlns="http://www.w3.org/2000/svg">
<path fill-rule="evenodd" clip-rule="evenodd" d="M3.00377 7.49497L3.90559 6.24167C6.27714 2.94578 7.46292 1.29784 8.21268 1.46134C8.96244 1.62483 8.48319 3.42684 7.52471 7.03086C7.46077 7.27128 7.61289 7.4715 7.85948 7.4715H10.2058C10.2455 7.47148 10.286 7.47148 10.3274 7.47148H10.8959C12.2813 7.47148 12.974 7.47148 13.1519 7.91464C13.3299 8.3578 12.8853 8.97564 11.9962 10.2113L11.0944 11.4646C8.72284 14.7605 7.53707 16.4084 6.7873 16.245C6.03754 16.0815 6.51679 14.2794 7.47528 10.6754C7.53922 10.435 7.38708 10.2347 7.14046 10.2347H4.85241C4.79444 10.2348 4.73455 10.2348 4.67262 10.2348H4.10412C2.71873 10.2348 2.02603 10.2348 1.84805 9.79165C1.67008 9.34849 2.11464 8.73065 3.00377 7.49497Z" fill="white"/>
<path d="M3.90559 6.24167L3.50301 6.0294L3.50301 6.0294L3.90559 6.24167ZM3.00377 7.49497L3.40635 7.70724L3.00377 7.49497ZM8.21268 1.46134L8.00145 1.9385L8.00145 1.9385L8.21268 1.46134ZM10.2058 7.4715L10.0964 7.95938L10.0967 7.95938L10.2058 7.4715ZM13.1519 7.91464L12.6682 8.16894L12.6682 8.16894L13.1519 7.91464ZM11.9962 10.2113L11.5936 9.99905L11.5936 9.99905L11.9962 10.2113ZM11.0944 11.4646L10.6918 11.2524L11.0944 11.4646ZM6.7873 16.245L6.57607 16.7221L6.57607 16.7221L6.7873 16.245ZM4.85241 10.2347L4.96185 9.74685L4.96114 9.74685L4.85241 10.2347ZM1.84805 9.79165L1.3643 10.0459L1.3643 10.0459L1.84805 9.79165ZM3.50301 6.0294L2.6012 7.28271L3.40635 7.70724L4.30817 6.45393L3.50301 6.0294ZM8.42391 0.984174C8.03007 0.898292 7.63564 1.07371 7.3082 1.30994C6.98659 1.54196 6.65154 1.88578 6.29871 2.29869C5.58953 3.12864 4.68077 4.3926 3.50301 6.0294L4.30817 6.45393C5.50196 4.79485 6.37187 3.5869 7.03591 2.80978C7.36968 2.41916 7.61987 2.17565 7.80558 2.04167C7.89513 1.97707 7.95062 1.95202 7.97808 1.94298C7.9907 1.93882 7.99666 1.93826 7.99783 1.93817C7.99871 1.93811 7.99938 1.93805 8.00145 1.9385L8.42391 0.984174ZM8.01985 7.05066C8.49566 5.26158 8.8643 3.87811 9.01528 2.92456C9.09028 2.45089 9.12031 2.03506 9.06131 1.71339C9.00025 1.38046 8.82517 1.07167 8.42391 0.984174L8.00145 1.9385C8.00352 1.93896 8.00254 1.93894 8.00084 1.93789C7.99928 1.93693 8.001 1.93748 8.0052 1.9428C8.01477 1.95493 8.03592 1.99059 8.05124 2.07409C8.0833 2.2489 8.07419 2.53948 8.00329 2.98725C7.86247 3.87659 7.51224 5.19613 7.02956 7.01107L8.01985 7.05066ZM7.75004 7.95938H10.0964L10.3153 6.98363H7.96893L7.75004 7.95938ZM10.4368 6.98361C10.3954 6.98361 10.3548 6.98361 10.315 6.98363L10.0967 7.95938C10.1362 7.95936 10.1765 7.95936 10.2179 7.95936L10.4368 6.98361ZM11.0053 6.98361H10.4368L10.2179 7.95936H10.7864L11.0053 6.98361ZM13.6357 7.66034C13.4724 7.25386 13.0784 7.10742 12.6586 7.04433C12.2459 6.9823 11.6812 6.98361 11.0053 6.98361L10.7864 7.95936C11.4959 7.95936 11.9703 7.96066 12.2947 8.00942C12.6121 8.05712 12.6534 8.13226 12.6682 8.16894L13.6357 7.66034ZM12.3988 10.4236C12.8331 9.82001 13.195 9.31902 13.4178 8.91316C13.6432 8.50261 13.7977 8.06379 13.6357 7.66034L12.6682 8.16894C12.6841 8.20865 12.7053 8.30033 12.5307 8.61841C12.3534 8.94118 12.0485 9.36695 11.5936 9.99905L12.3988 10.4236ZM11.497 11.6769L12.3988 10.4236L11.5936 9.99905L10.6918 11.2524L11.497 11.6769ZM6.57607 16.7221C6.96991 16.808 7.36434 16.6326 7.69179 16.3963C8.01339 16.1643 8.34845 15.8205 8.70128 15.4076C9.41046 14.5776 10.3192 13.3137 11.497 11.6769L10.6918 11.2524C9.49802 12.9114 8.62811 14.1194 7.96408 14.8965C7.6303 15.2871 7.38011 15.5306 7.1944 15.6646C7.10486 15.7292 7.04936 15.7543 7.02191 15.7633C7.00928 15.7675 7.00332 15.768 7.00215 15.7681C7.00128 15.7682 7.0006 15.7682 6.99854 15.7678L6.57607 16.7221ZM6.98013 10.6556C6.50432 12.4447 6.13568 13.8282 5.9847 14.7817C5.9097 15.2554 5.87967 15.6712 5.93867 15.9929C5.99973 16.3258 6.17482 16.6346 6.57607 16.7221L6.99854 15.7678C6.99646 15.7673 6.99745 15.7673 6.99915 15.7684C7.00071 15.7694 6.99898 15.7688 6.99478 15.7635C6.98522 15.7514 6.96406 15.7157 6.94875 15.6322C6.91669 15.4574 6.9258 15.1668 6.9967 14.719C7.13751 13.8297 7.48774 12.5102 7.97042 10.6952L6.98013 10.6556ZM7.2499 9.74685H4.96185L4.74296 10.7226H7.03102L7.2499 9.74685ZM4.56318 10.7227C4.62503 10.7227 4.68529 10.7227 4.74368 10.7226L4.96114 9.74685C4.90359 9.74693 4.84406 9.74693 4.78206 9.74693L4.56318 10.7227ZM3.99468 10.7227H4.56318L4.78206 9.74693H4.21357L3.99468 10.7227ZM1.3643 10.0459C1.52755 10.4524 1.92158 10.5989 2.34137 10.662C2.75411 10.724 3.31879 10.7227 3.99468 10.7227L4.21357 9.74693C3.50406 9.74693 3.0297 9.74563 2.70524 9.69686C2.38784 9.64916 2.34654 9.57403 2.33181 9.53735L1.3643 10.0459ZM2.6012 7.28271C2.16689 7.88628 1.80501 8.38727 1.58216 8.79313C1.35675 9.20368 1.20227 9.6425 1.3643 10.0459L2.33181 9.53735C2.31586 9.49763 2.29468 9.40596 2.46933 9.08788C2.64655 8.76511 2.95152 8.33934 3.40635 7.70724L2.6012 7.28271ZM7.97042 10.6952C8.10803 10.1778 7.78063 9.74685 7.2499 9.74685L7.03102 10.7226C6.99353 10.7226 6.97041 10.6922 6.98013 10.6556L7.97042 10.6952ZM7.02956 7.01107C6.89196 7.52846 7.21935 7.95938 7.75004 7.95938L7.96893 6.98363C8.00644 6.98363 8.02958 7.01409 8.01985 7.05066L7.02956 7.01107Z" fill="white"/>
</svg>
